{"title":"Rugby.Union-Jour.De.Rugby-2013.02.24.pdtv.x264","uid":8194894,"size":381605980,"categoryP":"video","categoryS":"tv_shows","magnet":"?xt=urn:btih:79e62e76839a40a343792683445236613b506dd6&amp;dn=Rugby.Union-Jour.De.Rugby-2013.02.24.pdtv.x264&amp;tr=udp%3A%2F%2Ftracker.openbittorrent.com%3A80&amp;tr=udp%3A%2F%2Fopen.demonii.com%3A1337&amp;tr=udp%3A%2F%2Ftracker.coppersurfer.tk%3A6969&amp;tr=udp%3A%2F%2Fexodus.desync.com%3A6969","seeders":1,"leechers":0,"uploader":"rugbybill","files":4,"time":1361896521,"description":"SPORT: Jour De Rugby\nOn: TV5MONDE \nDate: Sunday 24th February 2013 \nTime: 11:05 to 11:45 \n\nRÂ‚esumeÂ‚ des matchs et commentaires aprÂ‚es chaque journÂ‚e du Top 14. \nCompletely in French, a run down of the weekend's French Top 14 rugby.\n\n\nGeneral\nComplete name: 2013.02.24.Jour.De.Rugby.pdtv.x264.mp4\nFormat : MPEG-4\nFormat profile : Base Media\nCodec ID : isom\nFile size: 364 MiB\nDuration : 39mn 2s\nOverall bit rate mode: Variable\nOverall bit rate : 1 302 Kbps\n\nVideo\nID : 1\nFormat : AVC\nFormat/Info: Advanced Video Codec\nFormat profile : &lt;a class=&quot;__cf_email__&quot; href=&quot;/cdn-cgi/l/email-protection&quot; data-cfemail=&quot;4d05242a250d017e637c&quot;&gt;[email&amp;#160;protected]&lt;/a&gt;&lt;script cf-hash='f9e31' type=&quot;text/javascript&quot;&gt;\n/* &lt;![CDATA[ */!function(){try{var t=&quot;currentScript&quot;in document?document.currentScript:function(){for(var t=document.getElementsByTagName(&quot;script&quot;),e=t.length;e--;)if(t[e].getAttribute(&quot;cf-hash&quot;))return t[e]}();if(t&amp;&amp;t.previousSibling){var e,r,n,i,c=t.previousSibling,a=c.getAttribute(&quot;data-cfemail&quot;);if(a){for(e=&quot;&quot;,r=parseInt(a.substr(0,2),16),n=2;a.length-n;n+=2)i=parseInt(a.substr(n,2),16)^r,e+=String.fromCharCode(i);e=document.createTextNode(e),c.parentNode.replaceChild(e,c)}}}catch(u){}}();/* ]]&gt; */&lt;/script&gt;\nFormat settings, CABAC : Yes\nFormat settings, ReFrames: 4 frames\nCodec ID : avc1\nCodec ID/Info: Advanced Video Coding\nDuration : 39mn 1s\nBit rate : 1 170 Kbps\nMaximum bit rate : 3 849 Kbps\nWidth: 720 pixels\nHeight : 416 pixels\nDisplay aspect ratio : 1.731\nFrame rate mode: Constant\nFrame rate : 25.000 fps\nColor space: YUV\nChroma subsampling : 4:2:0\nBit depth: 8 bits\nScan type: Progressive\nBits/(Pixel*Frame) : 0.156\nStream size: 327 MiB (90%)\nWriting library: x264 core 129 r2245 bc13772\n\nAudio\nID : 2\nFormat : AAC\nFormat/Info: Advanced Audio Codec\nFormat profile : LC\nCodec ID : 40\nDuration : 39mn 2s\nBit rate mode: Variable\nBit rate : 128 Kbps\nMaximum bit rate : 143 Kbps\nChannel(s) : 2 channels\nChannel positions: Front: L R\nSampling rate: 48.0 KHz\nCompression mode : Lossy\nDelay relative to video: 80ms\nStream size: 35.7 MiB (10%)\nLanguage : English\n\n","torrent":{"xt":"urn:btih:79e62e76839a40a343792683445236613b506dd6","amp;dn":"Rugby.Union-Jour.De.Rugby-2013.02.24.pdtv.x264","amp;tr":["udp%3A%2F%2Ftracker.openbittorrent.com%3A80","udp%3A%2F%2Fopen.demonii.com%3A1337","udp%3A%2F%2Ftracker.coppersurfer.tk%3A6969","udp%3A%2F%2Fexodus.desync.com%3A6969"],"infoHash":"79e62e76839a40a343792683445236613b506dd6","infoHashBuffer":{"type":"Buffer","data":[121,230,46,118,131,154,64,163,67,121,38,131,68,82,54,97,59,80,109,214]},"announce":[],"urlList":[]}}